<?xml version="1.0" encoding="utf-8"?>
<!-- Generator: Adobe Illustrator 27.9.0, SVG Export Plug-In . SVG Version: 6.00 Build 0)  -->
<svg version="1.1" id="Layer_1" xmlns="http://www.w3.org/2000/svg" xmlns:xlink="http://www.w3.org/1999/xlink" x="0px" y="0px"
	 viewBox="0 0 22 22" style="enable-background:new 0 0 22 22;" xml:space="preserve">
<style type="text/css">
	.st0{fill-opacity:0;}
	.st1{fill:#FFFFFF;}
</style>
<g>
	<rect x="2.5" y="2.5" class="st0" width="17" height="17"/>
	<path class="st1" d="M2.8,19.2c0.4,0.4,1,0.4,1.4,0l6.9-6.9l6.9,6.9c0.4,0.4,1,0.4,1.4,0c0.4-0.4,0.4-1,0-1.4L12.4,11l6.9-6.9
		c0.4-0.4,0.4-1,0-1.4c-0.4-0.4-1-0.4-1.4,0L11,9.7L4.1,2.8c-0.4-0.4-1-0.4-1.4,0c-0.4,0.4-0.4,1,0,1.4L9.6,11l-6.9,6.9
		C2.4,18.3,2.4,18.9,2.8,19.2z"/>
</g>
</svg>
